<?xml version="1.0" encoding="UTF-8" standalone="no"?>
<!-- Generator: Adobe Illustrator 15.0.0, SVG Export Plug-In . SVG Version: 6.00 Build 0)  -->

<svg
   xmlns:dc="http://purl.org/dc/elements/1.1/"
   xmlns:cc="http://creativecommons.org/ns#"
   xmlns:rdf="http://www.w3.org/1999/02/22-rdf-syntax-ns#"
   xmlns:svg="http://www.w3.org/2000/svg"
   xmlns="http://www.w3.org/2000/svg"
   xmlns:sodipodi="http://sodipodi.sourceforge.net/DTD/sodipodi-0.dtd"
   xmlns:inkscape="http://www.inkscape.org/namespaces/inkscape"
   version="1.2"
   x="0px"
   y="0px"
   width="350"
   height="75"
   viewBox="0 0 350 75"
   xml:space="preserve"
   id="svg2"
   inkscape:version="0.91 r13725"
   sodipodi:docname="logo-sombre.svg"><metadata
     id="metadata26"><rdf:RDF><cc:Work
         rdf:about=""><dc:format>image/svg+xml</dc:format><dc:type
           rdf:resource="http://purl.org/dc/dcmitype/StillImage" /><dc:title></dc:title></cc:Work></rdf:RDF></metadata><defs
     id="defs24" /><sodipodi:namedview
     pagecolor="#ffffff"
     bordercolor="#666666"
     borderopacity="1"
     objecttolerance="10"
     gridtolerance="10"
     guidetolerance="10"
     inkscape:pageopacity="0"
     inkscape:pageshadow="2"
     inkscape:window-width="1920"
     inkscape:window-height="1017"
     id="namedview22"
     showgrid="false"
     inkscape:zoom="2.91"
     inkscape:cx="195.80297"
     inkscape:cy="33.22002"
     inkscape:window-x="-8"
     inkscape:window-y="-8"
     inkscape:window-maximized="1"
     inkscape:current-layer="layer1"
     showguides="false"><inkscape:grid
       type="xygrid"
       id="grid4215" /></sodipodi:namedview><g
     inkscape:groupmode="layer"
     id="layer1"
     inkscape:label="dark"
     style="display:inline"
     transform="translate(0,-15)"><g
       transform="translate(-25,7.999)"
       id="Calque_1"><path
         style="fill:#33414c;fill-rule:evenodd"
         inkscape:connector-curvature="0"
         d="m 300,25 -14,0 0,-2 c 0,0 -150.938,0 -168,0 -12.034,0 -19.938,3 -20,20 -0.063,3.938 -0.039,16.969 -0.031,20 C 98,76 91,81 83,81 58,81 57.971,18 40,18 c -5.096,0 -8,2.84 -8,10.938 0,1.549 0,31.731 0,52.063 -2.333,0 -4.667,0 -7,0 0,-15.665 0,-30.335 0,-46 0,-6.78 0,-3.64 0,-6 0,-13 7,-18 15,-18 25.014,0 25,63 43,63 3.906,0 8,-1.998 8,-11 0,-2.916 0,-13.063 0,-20 0,-23.738 15.011,-27 27,-27 8,0 168,0 168,0 l 0,-2 14,0 0,-3 13.002,0 L 317,8.08 354,8 l 0,23 -37,0 -4,-3 -13,0 0,-3 z"
         id="path5" /><path
         style="fill:#33414c;fill-rule:evenodd"
         inkscape:connector-curvature="0"
         d="m 253,81 c -2.333,0 -7,0 -7,0 0,0 0,-29.112 0,-32 0,-1.988 -1.055,-5 -4,-5 -2.131,0 -7.917,0 -10,0 -2.983,0 -4,2.959 -4,5 0,1.563 0,19.298 0,32 -2,0 -6.9,-0.047 -6.9,-0.047 0,0 0.036,-28.136 -0.059,-31.971 C 221,46.946 220.035,44 216.958,44 c -3.666,0 -7.063,0 -8.958,0 -3.022,0 -4,2.996 -4.047,4.894 0,1.894 0.047,20.774 0.047,32.106 -2.333,0 -4.667,0 -7,0 0,-11.332 0,-24.974 0,-32 0,-7.026 3.991,-11 11,-11 2.89,-0.021 5.868,-0.021 9,0 4,0 7.557,4.016 7.557,4.016 0,0 3.443,-4.016 7.443,-4.016 2.703,0.044 6.479,-0.08 10,0 6.96,0 11,4.014 11,11 0,10.999 0,21.001 0,32 z"
         id="path7" /><path
         style="fill:#33414c;fill-rule:evenodd"
         inkscape:connector-curvature="0"
         d="m 375,51 -7,0 c 0,0 0,1.03 0,-2 0,-2.022 -1.119,-5 -4,-5 -2.747,0 -16.969,0 -20,0 -2.982,0 -3.953,3.106 -4,5 0,2.983 0,19.059 0,21 0,1.941 1.015,5 4,5 1.989,0 16.922,0 20,0 3,0 3.953,-3.011 4,-5 0.047,-1.989 0,-2 0,-2 l 7,0 c 0,0 0,-0.746 0,2 0,6.987 -4.044,11 -11,11 -0.959,0 -16.129,0 -20,0 -7.013,0 -11,-4.043 -11,-11 0,-2.415 0.037,-17.022 0,-21 -0.065,-7.014 4.03,-11 11,-11 2.699,0.047 15.027,0 20,0 6.989,0 11,3.917 11,11 0.095,3.22 0,2 0,2 z"
         id="path9" /><path
         style="fill:#33414c;fill-rule:evenodd"
         inkscape:connector-curvature="0"
         d="m 145,49 c 0,-7.051 -3.989,-11 -11,-11 -7.011,0 -15.394,0 -20,0 -7.051,0 -11,3.99 -11,11 0,7.01 0,20.668 0,32 2.333,0 4.667,0 7,0 0,-6 0,-12 0,-18 9.333,0 18.667,0 28,0 0,6 0,12 0,18 2.333,0 4.667,0 7,0 0.092,-8.213 0,-25.968 0,-32 z m -7,8 c 0,0 -18.667,0 -28,0 -0.013,-3.646 0,-6.108 -0.008,-8.064 C 109.983,46.979 110.943,44 114,44 c 3.057,0 16.943,0 20,0 3.057,0 4,3.003 4,5 0,3.057 0,8 0,8 z"
         id="path11" /><path
         style="fill:#33414c;fill-rule:evenodd"
         inkscape:connector-curvature="0"
         d="m 169.1,62.958 c 0,0 8.9,0.042 11.9,0.042 6.875,0 11,-4.908 10.995,-12.288 C 192,41.936 188,38 181,38 c -4,0 -17.25,0 -20,0 -7,0 -11,3.911 -11,11.036 0,7.125 0,20.632 0,31.964 2.333,0 4.667,0 7,0 0,-6 0,-18 0,-18 l 2.891,0 23.246,18 L 192,81 169.1,62.958 Z M 157,57 c 0,0 0.005,-6.775 0.005,-8.006 0.047,-1.941 1.002,-4.994 3.977,-5.008 C 162.876,43.844 179.106,44 181,44 c 2.889,0 4,2.96 4.047,4.989 0.066,2.84 -0.102,1.183 -0.075,3.032 C 185,53.971 183.983,57 181,57 c -1.989,0 -24,0 -24,0 z"
         id="path13" /><path
         style="fill:#33414c;fill-rule:evenodd"
         inkscape:connector-curvature="0"
         d="m 317,38 c -4,0 -17.49,0 -20,0 -6.967,0 -11,4.024 -11,11 0.047,3.788 0,32 0,32 l 7,0 0,-18 c 0,0 20,0 24,0 6.969,0 11,-2.969 11,-12.558 C 328,40.83 324,38 317,38 Z m 0,19 c -1.969,0 -24,0 -24,0 0,0 0,-5.964 0,-8 0.098,-3.036 1.018,-5 4,-5 2.021,0 18.031,0 20,0 2.869,0 4,0.923 4,6.446 0,5.608 -1.003,6.554 -4,6.554 z"
         id="path15" /><path
         style="fill:#33414c;fill-rule:evenodd"
         inkscape:connector-curvature="0"
         d="m 258,62 23,0 0,7 -23,0 0,-7 z"
         id="path17" /><path
         style="fill:#538693;fill-rule:evenodd"
         inkscape:connector-curvature="0"
         d="m 355,11 0,17 20,0 0,-17 -20,0 z m 11,14 -5,0 0,-4 5,0 0,4 z m 0,-7 -5,0 0,-4 5,0 0,4 z"
         id="path19" /></g></g><g
     id="Calque_2"
     transform="translate(0,-15)" /></svg>