<?xml version="1.0" encoding="UTF-8" standalone="no"?>
<svg
   xmlns:dc="http://purl.org/dc/elements/1.1/"
   xmlns:cc="http://creativecommons.org/ns#"
   xmlns:rdf="http://www.w3.org/1999/02/22-rdf-syntax-ns#"
   xmlns:svg="http://www.w3.org/2000/svg"
   xmlns="http://www.w3.org/2000/svg"
   id="svg136"
   version="1.1"
   viewBox="0 0 270.933 111.463"
   height="421.279"
   width="1024">
  <metadata
     id="metadata140">
    <rdf:RDF>
      <cc:Work
         rdf:about="">
        <dc:format>image/svg+xml</dc:format>
        <dc:type
           rdf:resource="http://purl.org/dc/dcmitype/StillImage" />
        <dc:title></dc:title>
      </cc:Work>
    </rdf:RDF>
  </metadata>
  <defs
     id="defs120">
    <style
       id="style118">@font-face{font-family:&quot;Raleway&quot;;font-weight:normal;font-style:normal;}</style>
  </defs>
  <rect
     id="rect122"
     paint-order="normal"
     stroke-width="4.916"
     stroke="#219ebc"
     fill="#219ebc"
     width="78.599"
     height="54.999"
     x="28.888"
     y="28.801"
     ry="8.634" />
  <g
     id="g128"
     stroke="#8ecae6"
     fill="#8ecae6">
    <path
       id="path124"
       paint-order="normal"
       stroke-width="4.908"
       d="M29.005 38.273v-.842a8.6 8.6 0 0 1 8.612-8.626h0 61.182a8.6 8.6 0 0 1 8.612 8.626v.842" />
    <path
       id="path126"
       stroke-width="6.049"
       d="M29.59 38.612c-.109 1.49.262 3.184 1.284 5.039 20.085 33.166 58.522 31.156 74.636-.169.985-1.784 1.361-3.422 1.301-4.87z" />
  </g>
  <path
     id="path130"
     fill="#f9f9f9"
     paint-order="normal"
     d="M52.452 34.886a11.62 11.62 0 0 0-11.619 11.619c.001.287-.217.722.034.86 3.415 1.874 5.917-5.882 10.096-5.885 6.082.002 6.521 12.223 11.584 10.759 1.9-.549 1.52-3.723 1.523-5.734a11.62 11.62 0 0 0-11.62-11.619zm31.472 0a11.62 11.62 0 0 1 11.619 11.619c-.001.287.217.722-.034.86-3.415 1.874-5.917-5.882-10.096-5.885-6.082.002-6.521 12.223-11.584 10.759-1.9-.549-1.52-3.723-1.523-5.734a11.62 11.62 0 0 1 11.619-11.619z" />
  <g
     id="text134"
     style="font-size:48.16899872px;font-family:Tangerine;letter-spacing:0;word-spacing:0;fill:#000000"
     aria-label="galae">
    <path
       id="path142"
       style="font-style:normal;font-variant:normal;font-weight:600;font-stretch:normal;font-family:Raleway;-inkscape-font-specification:'Raleway Semi-Bold'"
       d="m 131.62414,68.751847 q -2.55296,0 -4.6724,-1.011549 -2.11943,-1.059718 -3.66084,-2.841971 -1.49324,-1.782253 -2.36028,-4.094365 -0.81888,-2.312112 -0.81888,-4.865069 0,-2.697464 0.86705,-5.057745 0.86704,-2.360281 2.40845,-4.142534 1.58957,-1.830422 3.70901,-2.841971 2.11944,-1.011549 4.72056,-1.011549 3.03465,0 5.29859,1.44507 2.31211,1.44507 3.80535,3.757182 v -4.768731 h 4.6724 v 24.469852 q 0,3.660844 -1.78226,6.2138 -1.73408,2.552957 -4.76873,3.901689 -3.03465,1.348732 -6.84,1.348732 -4.1907,0 -6.93633,-1.44507 -2.74564,-1.44507 -4.6724,-3.949858 l 2.98648,-2.793801 q 1.44507,2.023097 3.70902,3.082815 2.31211,1.059718 4.91323,1.059718 2.16761,0 3.99803,-0.818873 1.87859,-0.770704 2.98648,-2.456619 1.10789,-1.637745 1.10789,-4.142533 v -3.85352 q -1.34874,2.263943 -3.70902,3.564506 -2.36028,1.252394 -4.9614,1.252394 z m 1.73408,-4.287041 q 1.20422,0 2.31211,-0.385352 1.10789,-0.433521 2.0231,-1.107887 0.96338,-0.722535 1.63775,-1.589577 0.67436,-0.915211 0.96338,-1.92676 v -6.599153 q -0.6262,-1.637746 -1.78226,-2.841971 -1.15605,-1.252394 -2.60112,-1.92676 -1.44507,-0.674366 -2.93831,-0.674366 -1.73409,0 -3.13099,0.770704 -1.34873,0.722535 -2.31211,1.974929 -0.96338,1.204225 -1.49324,2.745633 -0.52986,1.541408 -0.52986,3.179154 0,1.734084 0.57803,3.227323 0.6262,1.493239 1.68592,2.697464 1.05971,1.156056 2.50478,1.830422 1.44507,0.626197 3.08282,0.626197 z" />
    <path
       id="path144"
       style="font-style:normal;font-variant:normal;font-weight:600;font-stretch:normal;font-family:Raleway;-inkscape-font-specification:'Raleway Semi-Bold'"
       d="m 150.12102,61.141145 q 0,-2.40845 1.34873,-4.190703 1.3969,-1.830422 3.80535,-2.793802 2.40845,-1.011549 5.5876,-1.011549 1.68592,0 3.42,0.240845 1.78226,0.240845 3.13099,0.770704 v -1.589577 q 0,-2.649295 -1.58958,-4.142534 -1.58958,-1.493239 -4.57605,-1.493239 -2.11944,0 -3.99803,0.770704 -1.87859,0.722535 -3.99803,2.071267 l -1.78225,-3.564506 q 2.50479,-1.685915 5.00958,-2.504788 2.55295,-0.818873 5.34675,-0.818873 5.05775,0 7.94789,2.697464 2.93831,2.649295 2.93831,7.562533 v 9.392955 q 0,0.915211 0.28901,1.300563 0.33718,0.385352 1.10789,0.433521 v 4.238872 q -0.72254,0.144507 -1.30056,0.192676 -0.57803,0.04817 -0.96338,0.04817 -1.68592,0 -2.55296,-0.818873 -0.86704,-0.818873 -1.01155,-1.92676 l -0.14451,-1.44507 q -1.63774,2.119436 -4.1907,3.275492 -2.55296,1.156056 -5.15408,1.156056 -2.50479,0 -4.47972,-1.011549 -1.97493,-1.059718 -3.08282,-2.841971 -1.10788,-1.782253 -1.10788,-3.998027 z m 16.04027,1.541408 q 0.57803,-0.626197 0.91521,-1.252394 0.33719,-0.626197 0.33719,-1.107887 v -2.89014 q -1.34873,-0.529859 -2.84197,-0.770704 -1.49324,-0.289014 -2.93831,-0.289014 -2.89014,0 -4.72056,1.156056 -1.78226,1.156056 -1.78226,3.179154 0,1.107887 0.57803,2.119436 0.6262,1.011549 1.73409,1.637746 1.15605,0.626197 2.84197,0.626197 1.73408,0 3.32366,-0.674366 1.58957,-0.674366 2.55295,-1.734084 z" />
    <path
       id="path146"
       style="font-style:normal;font-variant:normal;font-weight:600;font-stretch:normal;font-family:Raleway;-inkscape-font-specification:'Raleway Semi-Bold'"
       d="m 179.16688,33.347633 h 5.29859 v 27.88985 q 0,1.92676 0.57803,2.456619 0.57803,0.529859 1.44507,0.529859 0.96338,0 1.78225,-0.192676 0.86705,-0.192676 1.49324,-0.48169 l 0.77071,4.190703 q -1.15606,0.48169 -2.74564,0.818873 -1.58957,0.337183 -2.84197,0.337183 -2.69746,0 -4.23887,-1.493239 -1.54141,-1.541408 -1.54141,-4.238872 z" />
    <path
       id="path148"
       style="font-style:normal;font-variant:normal;font-weight:600;font-stretch:normal;font-family:Raleway;-inkscape-font-specification:'Raleway Semi-Bold'"
       d="m 191.7871,61.141145 q 0,-2.40845 1.34873,-4.190703 1.3969,-1.830422 3.80535,-2.793802 2.40845,-1.011549 5.58761,-1.011549 1.68591,0 3.42,0.240845 1.78225,0.240845 3.13098,0.770704 v -1.589577 q 0,-2.649295 -1.58957,-4.142534 -1.58958,-1.493239 -4.57606,-1.493239 -2.11944,0 -3.99803,0.770704 -1.87859,0.722535 -3.99802,2.071267 l -1.78226,-3.564506 q 2.50479,-1.685915 5.00958,-2.504788 2.55296,-0.818873 5.34676,-0.818873 5.05774,0 7.94788,2.697464 2.93831,2.649295 2.93831,7.562533 v 9.392955 q 0,0.915211 0.28902,1.300563 0.33718,0.385352 1.10788,0.433521 v 4.238872 q -0.72253,0.144507 -1.30056,0.192676 -0.57803,0.04817 -0.96338,0.04817 -1.68591,0 -2.55296,-0.818873 -0.86704,-0.818873 -1.01155,-1.92676 l -0.1445,-1.44507 q -1.63775,2.119436 -4.19071,3.275492 -2.55295,1.156056 -5.15408,1.156056 -2.50479,0 -4.47972,-1.011549 -1.97492,-1.059718 -3.08281,-2.841971 -1.10789,-1.782253 -1.10789,-3.998027 z m 16.04028,1.541408 q 0.57803,-0.626197 0.91521,-1.252394 0.33718,-0.626197 0.33718,-1.107887 v -2.89014 q -1.34873,-0.529859 -2.84197,-0.770704 -1.49324,-0.289014 -2.93831,-0.289014 -2.89014,0 -4.72056,1.156056 -1.78225,1.156056 -1.78225,3.179154 0,1.107887 0.57803,2.119436 0.62619,1.011549 1.73408,1.637746 1.15606,0.626197 2.84197,0.626197 1.73408,0 3.32366,-0.674366 1.58958,-0.674366 2.55296,-1.734084 z" />
    <path
       id="path150"
       style="font-style:normal;font-variant:normal;font-weight:600;font-stretch:normal;font-family:Raleway;-inkscape-font-specification:'Raleway Semi-Bold'"
       d="m 232.20085,68.992692 q -2.93831,0 -5.34676,-1.011549 -2.36028,-1.059718 -4.09436,-2.841971 -1.73409,-1.830422 -2.69747,-4.142534 -0.91521,-2.360281 -0.91521,-5.009576 0,-3.564506 1.63775,-6.502815 1.63774,-2.986478 4.57605,-4.768731 2.93831,-1.830422 6.88817,-1.830422 3.94986,0 6.79183,1.830422 2.89014,1.782253 4.47972,4.720562 1.58957,2.938309 1.58957,6.310139 0,0.578028 -0.0482,1.107887 -0.0482,0.48169 -0.0963,0.818873 h -20.18281 q 0.1445,2.215774 1.20422,3.901689 1.10789,1.637746 2.7938,2.601126 1.68592,0.915211 3.61268,0.915211 2.11943,0 3.99802,-1.059718 1.92676,-1.059718 2.60113,-2.793802 l 4.52789,1.300563 q -0.81888,1.830422 -2.50479,3.323661 -1.63775,1.44507 -3.90169,2.312112 -2.26394,0.818873 -4.91324,0.818873 z M 224.63832,54.15664 h 15.2214 q -0.14451,-2.167605 -1.25239,-3.805351 -1.05972,-1.685915 -2.74564,-2.601126 -1.63774,-0.96338 -3.66084,-0.96338 -1.97493,0 -3.66084,0.96338 -1.63775,0.915211 -2.69747,2.601126 -1.05971,1.637746 -1.20422,3.805351 z" />
  </g>
</svg>
